<svg width="30" height="30" viewBox="0 0 30 30" fill="none" xmlns="http://www.w3.org/2000/svg">
<path d="M26.8966 17.081C26.8233 17.4735 26.6262 17.7821 26.3591 17.9828C26.1365 18.1501 25.8653 18.2426 25.5768 18.2463H9.68083L9.36524 20.0988H24.5151C24.9689 20.1347 25.3396 20.3406 25.5768 20.65C25.5876 20.6641 25.5981 20.6785 25.6084 20.693C25.6423 20.7411 25.6731 20.7915 25.7007 20.8439C25.8033 21.039 25.8606 21.2627 25.8637 21.5031C25.8339 21.9289 25.6704 22.285 25.4201 22.5321C25.183 22.7662 24.868 22.9025 24.5151 22.9075H7.75841C7.29329 22.8639 6.92455 22.6445 6.68902 22.3283C6.46565 22.0283 6.3621 21.6412 6.40984 21.2342L7.12716 17.1706L6.03682 5.75659L2.93799 4.74076C2.18072 4.42765 1.87164 3.71427 2.04851 2.97787C2.34259 2.2104 3.04726 1.85975 3.74139 2.0516L7.70102 3.36631C8.23445 3.57454 8.54132 4.02924 8.61919 4.5615L8.84872 6.83234L10.3837 7.01108C11.0391 7.08739 11.5333 7.64255 11.5333 8.30235C11.5333 9.07991 10.8553 9.68356 10.083 9.59363L9.00318 9.46789L9.59352 15.6477C9.62252 15.6468 9.65163 15.6463 9.68083 15.6463H24.5006L25.2187 11.3561L23.9496 11.2083C23.2943 11.132 22.8 10.5769 22.8 9.91706C22.8 9.1395 23.478 8.53585 24.2504 8.62578L26.8105 8.9239C27.6358 9.11006 28.0839 9.7908 27.987 10.5673L26.8966 17.081Z" fill="white"/>
<path fill-rule="evenodd" clip-rule="evenodd" d="M22.0959 23.7123C23.1189 23.7123 23.9677 24.4893 24.1276 25.5075C24.1454 25.621 24.1547 25.7374 24.1547 25.8562C24.1547 27.0402 23.233 28 22.0959 28C20.9589 28 20.0372 27.0402 20.0372 25.8562C20.0372 25.7374 20.0465 25.621 20.0643 25.5075C20.2243 24.4893 21.073 23.7123 22.0959 23.7123ZM21.5547 25.8562C21.5547 25.7623 21.6098 25.61 21.7459 25.5075H22.0959L22.0959 26.3123C21.6987 26.3123 21.5547 26.0078 21.5547 25.8562ZM22.0959 25.5075H22.446C22.5821 25.61 22.6372 25.7624 22.6372 25.8562C22.6372 26.0077 22.4932 26.3123 22.0959 26.3123L22.0959 25.5075Z" fill="white"/>
<path fill-rule="evenodd" clip-rule="evenodd" d="M9.8055 23.7123C10.8285 23.7123 11.6772 24.4893 11.8371 25.5075C11.855 25.621 11.8642 25.7374 11.8642 25.8562C11.8642 27.0402 10.9425 28 9.8055 28C8.6685 28 7.7468 27.0402 7.7468 25.8562C7.7468 25.7374 7.75607 25.621 7.77389 25.5075C7.93382 24.4893 8.78254 23.7123 9.8055 23.7123ZM9.26423 25.8562C9.26423 25.7623 9.31937 25.61 9.4555 25.5075H9.80547L9.80545 26.3123C9.40825 26.3123 9.26423 26.0078 9.26423 25.8562ZM9.80547 25.5075H10.1555C10.2917 25.61 10.3468 25.7624 10.3468 25.8562C10.3468 26.0077 10.2027 26.3123 9.80545 26.3123L9.80547 25.5075Z" fill="white"/>
<path d="M17.1211 12.4C16.5688 12.4 16.1211 11.9523 16.1211 11.4V9.50402H14.2666C13.7143 9.50402 13.2666 9.05226 13.2666 8.49998C13.2666 7.94769 13.7143 7.49593 14.2666 7.49593H16.1211V5.59998C16.1211 5.04769 16.5688 4.59998 17.1211 4.59998H17.2039C17.7562 4.59998 18.2039 5.04769 18.2039 5.59998V7.49593H20.0666C20.6189 7.49593 21.0666 7.94769 21.0666 8.49998C21.0666 9.05226 20.6189 9.50402 20.0666 9.50402H18.2039V11.4C18.2039 11.9523 17.7562 12.4 17.2039 12.4H17.1211Z" fill="white"/>
</svg>
