<svg width="33" height="30" viewBox="0 0 33 30" fill="none" xmlns="http://www.w3.org/2000/svg">
<path fill-rule="evenodd" clip-rule="evenodd" d="M28.172 18.7767C28.4469 18.5529 28.6484 18.2273 28.7269 17.8211L29.9849 10.5558C30.0967 9.68974 29.5798 8.93045 28.6275 8.72281L7.90237 6.38992L7.63752 3.85705C7.54767 3.26339 7.1936 2.75621 6.5781 2.52396L2.0093 1.05756C1.20837 0.843569 0.395297 1.23467 0.0559724 2.0907C-0.148103 2.91207 0.208522 3.70777 1.0823 4.057L4.65787 5.19005L5.91595 17.921L5.08827 22.4536C5.03554 22.8882 5.1428 23.3024 5.37821 23.6305C5.64795 24.0065 6.08595 24.2693 6.64432 24.3199H25.979C26.4036 24.3141 26.7805 24.1491 27.0577 23.8672C27.327 23.5933 27.5021 23.2092 27.535 22.7535C27.532 22.5247 27.4834 22.3096 27.3957 22.1162C27.3524 22.0207 27.2996 21.9305 27.238 21.8466C27.227 21.8315 27.2156 21.8166 27.2039 21.8019C26.9303 21.4568 26.5026 21.2272 25.979 21.1872H8.49835L8.8625 19.1209H27.2039C27.5657 19.1163 27.9038 18.995 28.172 18.7767ZM25.9767 16.1209L26.7711 11.5328L8.09149 9.43015L8.75286 16.1228C8.78927 16.1215 8.82582 16.1209 8.8625 16.1209H25.9767ZM25.5459 27.3199C25.4042 26.1355 24.4024 25.2176 23.1876 25.2175C21.9728 25.2175 20.9711 26.1355 20.8294 27.3199C20.818 27.4146 20.8122 27.511 20.8122 27.6088C20.8122 28.9294 21.8757 30 23.1876 30C24.4996 30 25.5631 28.9294 25.5631 27.6088C25.5631 27.511 25.5573 27.4146 25.5459 27.3199ZM22.6385 27.3199C22.59 27.4076 22.5631 27.5069 22.5631 27.6088C22.5631 27.9263 22.824 28.2175 23.1876 28.2175C23.5513 28.2175 23.8122 27.9262 23.8122 27.6088C23.8122 27.5069 23.7853 27.4076 23.7367 27.3199H23.1876H22.6385ZM11.3646 27.3199C11.2229 26.1355 10.2211 25.2176 9.00635 25.2175C7.79159 25.2175 6.78979 26.1355 6.64809 27.3199C6.63675 27.4146 6.63092 27.511 6.63092 27.6088C6.63092 28.9294 7.69442 30 9.00635 30C10.3183 30 11.3818 28.9294 11.3818 27.6088C11.3818 27.511 11.376 27.4146 11.3646 27.3199ZM8.45726 27.3199C8.4087 27.4076 8.3818 27.5069 8.3818 27.6088C8.3818 27.9263 8.6427 28.2175 9.00629 28.2175C9.36998 28.2175 9.63092 27.9262 9.63092 27.6088C9.63092 27.5069 9.60402 27.4076 9.55546 27.3199H9.00635H8.45726Z" fill="#949EA0"/>
</svg>
