<svg width="30" height="30" viewBox="0 0 30 30" fill="none" xmlns="http://www.w3.org/2000/svg">
<path fill-rule="evenodd" clip-rule="evenodd" d="M20.2653 6.17159L20.2575 6.17384C19.1217 6.50191 18.1307 7.20548 17.4465 8.1696L15 11.6168L12.5535 8.1696C11.8699 7.20629 10.88 6.50309 9.74535 6.17466C7.36184 5.49281 5.65971 6.73094 5.19688 7.68077L5.19578 7.68303C4.28809 9.54186 4.39522 11.9473 6.85673 15.3233C8.65791 17.7896 11.2254 20.3837 15.005 23.431C18.7854 20.3888 21.3498 17.8176 23.1431 15.335L23.1486 15.3274L23.1486 15.3275C25.6043 11.95 25.7125 9.54308 24.8042 7.68303L27.4998 6.36677L24.8031 7.68077C24.3349 6.71989 22.622 5.48398 20.2653 6.17159ZM4.43335 17.0917C1.58334 13.1833 0.933345 9.57499 2.50001 6.36666C3.61668 4.07499 6.82501 2.21666 10.575 3.29166C11.3789 3.52386 12.1367 3.87554 12.8252 4.33026C13.6681 4.88693 14.4072 5.598 15 6.43333C15.5928 5.598 16.3319 4.88693 17.1748 4.33026C17.8634 3.87554 18.6211 3.52386 19.425 3.29166C23.1667 2.19999 26.3833 4.07499 27.5 6.36666C29.0667 9.57499 28.4167 13.1833 25.575 17.0917C23.3417 20.1833 20.1417 23.2583 15.5167 26.85C15.3703 26.9642 15.1899 27.0262 15.0042 27.0262C14.8185 27.0262 14.6381 26.9642 14.4917 26.85C9.85835 23.25 6.66668 20.15 4.43335 17.0917Z" fill="#949EA0"/>
</svg>
