<svg width="20" height="20" viewBox="0 0 20 20" fill="none" xmlns="http://www.w3.org/2000/svg">
<path fill-rule="evenodd" clip-rule="evenodd" d="M9.99984 3.5C8.71117 3.5 7.6665 4.54467 7.6665 5.83333C7.6665 7.122 8.71117 8.16667 9.99984 8.16667C11.2885 8.16667 12.3332 7.122 12.3332 5.83333C12.3332 4.54467 11.2885 3.5 9.99984 3.5ZM5.6665 5.83333C5.6665 3.4401 7.6066 1.5 9.99984 1.5C12.3931 1.5 14.3332 3.4401 14.3332 5.83333C14.3332 8.22657 12.3931 10.1667 9.99984 10.1667C7.6066 10.1667 5.6665 8.22657 5.6665 5.83333Z" fill="#949EA0"/>
<path fill-rule="evenodd" clip-rule="evenodd" d="M3.87205 12.3113C4.6864 11.3189 6.06731 10.6667 7.49993 10.6667H12.4999C13.9326 10.6667 15.3135 11.3189 16.1278 12.3113C16.542 12.8161 16.8389 13.4476 16.8647 14.1538C16.8912 14.8769 16.6293 15.5776 16.1008 16.1822C14.8342 17.6312 12.8237 18.5 9.99993 18.5C7.17617 18.5 5.16568 17.6312 3.8991 16.1822L4.652 15.5241L3.8991 16.1822C3.3706 15.5776 3.10864 14.8769 3.13513 14.1538C3.161 13.4476 3.45782 12.8161 3.87205 12.3113ZM5.13379 14.2271C5.12783 14.3897 5.17615 14.6043 5.4049 14.866C6.19816 15.7734 7.59404 16.5 9.99993 16.5C12.4058 16.5 13.8017 15.7734 14.595 14.866C14.8237 14.6043 14.872 14.3897 14.8661 14.2271C14.8595 14.0476 14.7812 13.823 14.5817 13.58C14.1688 13.0768 13.3685 12.6667 12.4999 12.6667H7.49993C6.63137 12.6667 5.83106 13.0768 5.41812 13.58C5.2187 13.823 5.14036 14.0476 5.13379 14.2271Z" fill="#949EA0"/>
</svg>
