<svg width="30" height="30" viewBox="0 0 30 30" fill="none" xmlns="http://www.w3.org/2000/svg">
<path d="M5.56636 0C4.09184 0.00574589 2.67935 0.594046 1.6367 1.6367C0.594046 2.67935 0.00574589 4.09184 0 5.56636V24.4336C0.00574589 25.9082 0.594046 27.3207 1.6367 28.3633C2.67935 29.406 4.09184 29.9943 5.56636 30H24.4336C25.9082 29.9943 27.3207 29.406 28.3633 28.3633C29.406 27.3207 29.9943 25.9082 30 24.4336V5.56636C29.9943 4.09184 29.406 2.67935 28.3633 1.6367C27.3207 0.594046 25.9082 0.00574589 24.4336 0H5.56636ZM5.56636 2.72727H24.4336C26.0155 2.72727 27.2727 3.98455 27.2727 5.56636V24.4336C27.2727 26.0155 26.0155 27.2727 24.4336 27.2727H5.56636C5.19287 27.2751 4.82263 27.2033 4.47711 27.0614C4.13159 26.9196 3.81768 26.7105 3.55358 26.4464C3.28947 26.1823 3.08043 25.8684 2.93859 25.5229C2.79675 25.1774 2.72492 24.8071 2.72727 24.4336V5.56636C2.72727 3.98455 3.98455 2.72727 5.56636 2.72727ZM14.6168 9.85909C13.6145 9.84954 12.7623 9.85909 12.2836 10.0936C11.9632 10.2491 11.7191 10.5995 11.8677 10.6159C12.0545 10.6432 12.4745 10.7332 12.6995 11.0373C12.9859 11.4259 12.9764 12.3055 12.9764 12.3055C12.9764 12.3055 13.1359 14.7232 12.5864 15.0273C12.2086 15.2345 11.6918 14.8132 10.5736 12.8905C10.0036 11.9005 9.57273 10.8082 9.57273 10.8082C9.57273 10.8082 9.49091 10.605 9.34364 10.4986C9.16227 10.3664 8.91136 10.3227 8.91136 10.3227L6.24273 10.3391C6.24273 10.3391 5.84318 10.3555 5.7 10.5259C5.56636 10.6855 5.68909 10.9991 5.68909 10.9991C5.68909 10.9991 7.77682 15.8836 10.1414 18.345C12.3095 20.6045 14.7709 20.4545 14.7709 20.4545H15.8891C15.8891 20.4545 16.2245 20.4177 16.395 20.2364C16.5559 20.0659 16.5505 19.7455 16.5505 19.7455C16.5505 19.7455 16.5286 18.2495 17.2214 18.0259C17.9086 17.8118 18.7814 19.4741 19.7141 20.1136C20.4232 20.5977 20.9605 20.4914 20.9605 20.4914L23.4545 20.4545C23.4545 20.4545 24.7541 20.3741 24.1364 19.3459C24.0886 19.2668 23.7791 18.5905 22.2886 17.205C20.7218 15.7568 20.9305 15.9914 22.815 13.4823C23.9605 11.9536 24.4186 11.0209 24.2741 10.6159C24.1377 10.2382 23.295 10.3391 23.295 10.3391L20.4873 10.3555C20.4873 10.3555 20.28 10.3282 20.1259 10.4195C20.02 10.4982 19.9355 10.6023 19.8805 10.7223C19.8805 10.7223 19.4332 11.9045 18.8414 12.9123C17.595 15.0314 17.0891 15.1486 16.8873 15.0164C16.4127 14.7068 16.53 13.7795 16.53 13.125C16.53 11.0632 16.8436 10.2109 15.9232 9.98864C15.6191 9.91364 15.3955 9.86591 14.6182 9.85909H14.6168Z" fill="#3D3D3D"/>
</svg>
