<svg width="30" height="30" viewBox="0 0 30 30" fill="none" xmlns="http://www.w3.org/2000/svg">
<path d="M27.5 6.36666C26.3833 4.07499 23.1667 2.19999 19.425 3.29166C17.6371 3.80811 16.0771 4.91565 15 6.43333C13.9229 4.91565 12.363 3.80811 10.575 3.29166C6.82501 2.21666 3.61668 4.07499 2.50001 6.36666C0.933345 9.575 1.58334 13.1833 4.43334 17.0917C6.66668 20.15 9.85834 23.25 14.4917 26.85C14.6381 26.9642 14.8185 27.0262 15.0042 27.0262C15.1899 27.0262 15.3703 26.9642 15.5167 26.85C20.1417 23.2583 23.3417 20.1833 25.575 17.0917C28.4167 13.1833 29.0667 9.575 27.5 6.36666V6.36666Z" fill="#FF654C"/>
</svg>
