<svg width="30" height="30" viewBox="0 0 30 30" fill="none" xmlns="http://www.w3.org/2000/svg">
<path d="M15 0C10.925 0 10.4163 0.01875 8.81625 0.09C7.21875 0.165 6.13125 0.41625 5.175 0.7875C4.18875 1.17 3.35125 1.68375 2.5175 2.5175C1.68375 3.35125 1.16875 4.1875 0.7875 5.175C0.41625 6.13125 0.16375 7.21875 0.09 8.81625C0.015 10.4163 0 10.925 0 15C0 19.075 0.01875 19.5837 0.09 21.1838C0.165 22.78 0.41625 23.8688 0.7875 24.825C1.16411 25.8261 1.7545 26.733 2.5175 27.4825C3.2666 28.246 4.17362 28.8365 5.175 29.2125C6.1325 29.5825 7.22 29.8363 8.81625 29.91C10.4163 29.985 10.925 30 15 30C19.075 30 19.5837 29.9812 21.1838 29.91C22.78 29.835 23.8688 29.5825 24.825 29.2125C25.8258 28.8354 26.7326 28.2451 27.4825 27.4825C28.2463 26.7336 28.8368 25.8265 29.2125 24.825C29.5825 23.8688 29.8363 22.78 29.91 21.1838C29.985 19.5837 30 19.075 30 15C30 10.925 29.9812 10.4163 29.91 8.81625C29.835 7.22 29.5825 6.13 29.2125 5.175C28.8357 4.17402 28.2453 3.26716 27.4825 2.5175C26.7339 1.7533 25.8268 1.16274 24.825 0.7875C23.8688 0.41625 22.78 0.16375 21.1838 0.09C19.5837 0.015 19.075 0 15 0ZM15 2.7C19.0037 2.7 19.4813 2.72 21.0625 2.78875C22.525 2.8575 23.3188 3.1 23.8462 3.3075C24.5487 3.57875 25.0462 3.90375 25.5737 4.4275C26.0975 4.9525 26.4225 5.45125 26.6937 6.15375C26.8988 6.68125 27.1437 7.475 27.21 8.9375C27.2812 10.52 27.2975 10.995 27.2975 15C27.2975 19.005 27.2787 19.4813 27.205 21.0625C27.1287 22.525 26.885 23.3188 26.6788 23.8462C26.4347 24.4972 26.0512 25.0868 25.555 25.5737C25.0702 26.0704 24.4809 26.4529 23.83 26.6937C23.305 26.8988 22.4988 27.1437 21.0363 27.21C19.4438 27.2812 18.975 27.2975 14.9625 27.2975C10.9488 27.2975 10.48 27.2787 8.88875 27.205C7.425 27.1287 6.61875 26.885 6.09375 26.6788C5.44238 26.4377 4.85335 26.0537 4.37 25.555C3.86823 25.0734 3.48339 24.4833 3.245 23.83C3.03875 23.305 2.79625 22.4988 2.72 21.0363C2.66375 19.4613 2.64375 18.975 2.64375 14.9812C2.64375 10.9862 2.66375 10.4987 2.72 8.905C2.79625 7.4425 3.03875 6.6375 3.245 6.1125C3.5075 5.4 3.84375 4.9125 4.37 4.38625C4.89375 3.8625 5.3825 3.525 6.09375 3.26375C6.61875 3.05625 7.4075 2.8125 8.87 2.7375C10.4637 2.68125 10.9325 2.6625 14.9438 2.6625L15 2.7ZM15 7.2975C13.9885 7.2975 12.9869 7.49673 12.0524 7.88382C11.1179 8.2709 10.2688 8.83827 9.55351 9.55351C8.83827 10.2688 8.2709 11.1179 7.88382 12.0524C7.49673 12.9869 7.2975 13.9885 7.2975 15C7.2975 16.0115 7.49673 17.0131 7.88382 17.9476C8.2709 18.8821 8.83827 19.7312 9.55351 20.4465C10.2688 21.1617 11.1179 21.7291 12.0524 22.1162C12.9869 22.5033 13.9885 22.7025 15 22.7025C17.0428 22.7025 19.002 21.891 20.4465 20.4465C21.891 19.002 22.7025 17.0428 22.7025 15C22.7025 12.9572 21.891 10.998 20.4465 9.55351C19.002 8.10901 17.0428 7.2975 15 7.2975ZM15 20C12.2375 20 10 17.7625 10 15C10 12.2375 12.2375 10 15 10C17.7625 10 20 12.2375 20 15C20 17.7625 17.7625 20 15 20ZM24.8075 6.99375C24.7901 7.45953 24.5929 7.90045 24.2572 8.22384C23.9216 8.54723 23.4736 8.72791 23.0075 8.72791C22.5414 8.72791 22.0934 8.54723 21.7578 8.22384C21.4221 7.90045 21.2249 7.45953 21.2075 6.99375C21.2075 6.51636 21.3971 6.05852 21.7347 5.72096C22.0723 5.38339 22.5301 5.19375 23.0075 5.19375C23.4849 5.19375 23.9427 5.38339 24.2803 5.72096C24.6179 6.05852 24.8075 6.51636 24.8075 6.99375Z" fill="#3D3D3D"/>
</svg>
