<svg width="20" height="20" viewBox="0 0 20 20" fill="none" xmlns="http://www.w3.org/2000/svg">
<path fill-rule="evenodd" clip-rule="evenodd" d="M1.5 6.66667C1.5 4.73367 3.067 3.16667 5 3.16667H15C16.933 3.16667 18.5 4.73367 18.5 6.66667V13.3333C18.5 15.2663 16.933 16.8333 15 16.8333H5C3.067 16.8333 1.5 15.2663 1.5 13.3333V6.66667ZM5 5.16667C4.17157 5.16667 3.5 5.83824 3.5 6.66667V13.3333C3.5 14.1618 4.17157 14.8333 5 14.8333H15C15.8284 14.8333 16.5 14.1618 16.5 13.3333V6.66667C16.5 5.83824 15.8284 5.16667 15 5.16667H5Z" fill="#949EA0"/>
<path fill-rule="evenodd" clip-rule="evenodd" d="M5.05266 6.87531C5.39767 6.44404 6.02697 6.37412 6.45823 6.71913L10.0002 9.55271L13.5422 6.71913C13.9734 6.37412 14.6027 6.44404 14.9477 6.87531C15.2927 7.30657 15.2228 7.93586 14.7916 8.28087L10.0002 12.114L5.20884 8.28087C4.77758 7.93586 4.70765 7.30657 5.05266 6.87531Z" fill="#949EA0"/>
</svg>
