<svg width="20" height="20" viewBox="0 0 20 20" fill="none" xmlns="http://www.w3.org/2000/svg">
<path fill-rule="evenodd" clip-rule="evenodd" d="M5.75411 2.52146C7.87109 1.81535 9.99684 3.14514 10.5846 5.26896L10.5847 5.26897C10.9716 6.66726 10.6313 8.13301 9.77012 9.17081C9.92488 9.36328 10.0915 9.54928 10.27 9.72793C10.4473 9.90536 10.6318 10.071 10.8227 10.225C11.8605 9.35704 13.3306 9.01279 14.7329 9.40148L14.7329 9.40148C16.8565 9.9901 18.1836 12.1175 17.4787 14.2341C17.0238 15.5999 16.1645 16.453 15.0032 16.7334C13.935 16.9913 12.7982 16.715 11.818 16.3075C9.84126 15.4858 7.89906 13.8737 7.01212 12.9861C6.10433 12.0776 4.4991 10.1326 3.68476 8.15939C3.28088 7.18079 3.00926 6.04808 3.26782 4.98469C3.54879 3.82912 4.39752 2.97392 5.75411 2.52146ZM6.07052 3.47009L5.75411 2.52146L6.07052 3.47009ZM8.65711 5.80245C8.33538 4.63998 7.28206 4.12014 6.38693 4.41871L6.38691 4.41871C5.55424 4.69643 5.29984 5.09267 5.2112 5.45721C5.10015 5.91395 5.19246 6.57006 5.5335 7.3964C6.20899 9.03312 7.6175 10.7624 8.42686 11.5724C9.21653 12.3627 10.9441 13.7783 12.5857 14.4608C13.4147 14.8054 14.0741 14.9002 14.5338 14.7892C14.9004 14.7007 15.3005 14.4447 15.5811 13.6022L15.5811 13.6022C15.8801 12.7045 15.359 11.6504 14.1987 11.3288L14.4658 10.3651L14.1987 11.3288C13.3344 11.0893 12.4496 11.3686 11.9277 11.9275C11.5195 12.3647 10.7331 12.6216 10.0587 12.1509C9.63445 11.8547 9.23158 11.5182 8.85523 11.1416C8.47827 10.7644 8.14164 10.3605 7.84545 9.93534C7.37771 9.26386 7.63034 8.48056 8.06434 8.0714C8.61924 7.54826 8.89588 6.66517 8.65711 5.80245Z" fill="#949EA0"/>
</svg>
