<svg width="20" height="20" viewBox="0 0 20 20" fill="none" xmlns="http://www.w3.org/2000/svg">
<path d="M14.5496 13.019C13.9395 13.019 13.389 13.2561 12.9716 13.6378L7.24756 10.2996C7.2919 10.1184 7.31986 9.92944 7.31986 9.73664C7.31986 9.54385 7.2919 9.35588 7.24756 9.17465L12.9109 5.86919C13.3543 6.28696 13.9404 6.5197 14.5496 6.51987C15.879 6.51987 16.9596 5.43926 16.9596 4.10994C16.9596 2.78062 15.879 1.70001 14.5496 1.70001C13.2203 1.70001 12.1397 2.78062 12.1397 4.10994C12.1397 4.30274 12.1677 4.49167 12.212 4.67194L6.54868 7.9774C6.10502 7.56004 5.51904 7.32737 4.90993 7.32671C3.58061 7.32671 2.5 8.40733 2.5 9.73664C2.5 11.066 3.58061 12.1466 4.90993 12.1466C5.51913 12.1464 6.10529 11.9137 6.54868 11.4959L12.2727 14.8341C12.2306 15.0064 12.2089 15.1831 12.2082 15.3605C12.2083 15.8233 12.3458 16.2757 12.603 16.6604C12.8603 17.0452 13.2258 17.345 13.6534 17.522C14.0811 17.6991 14.5516 17.7453 15.0055 17.655C15.4595 17.5647 15.8764 17.3418 16.2037 17.0145C16.5309 16.6872 16.7538 16.2703 16.8442 15.8163C16.9345 15.3624 16.8883 14.8919 16.7112 14.4643C16.5342 14.0366 16.2344 13.6711 15.8496 13.4138C15.4649 13.1566 15.0125 13.0192 14.5496 13.019Z" fill="#FAA99C"/>
</svg>
