<svg width="143" height="50" viewBox="0 0 143 50" fill="none" xmlns="http://www.w3.org/2000/svg">
<g clip-path="url(#clip0_201_413)">
<path d="M100.059 0H41.943C40.604 0.00184309 39.3204 0.534577 38.3735 1.4814C37.4267 2.42822 36.894 3.71185 36.8922 5.05086V28.4311C36.894 29.7701 37.4267 31.0537 38.3735 32.0006C39.3204 32.9474 40.604 33.4801 41.943 33.482H65.8701C66.8399 33.481 67.7697 33.0954 68.4554 32.4097C69.1411 31.724 69.5267 30.7942 69.5277 29.8244V23.2061C69.5267 22.2363 69.1411 21.3066 68.4554 20.6208C67.7697 19.9351 66.8399 19.5495 65.8701 19.5486H49.2093C48.8403 19.448 48.5124 19.2336 48.2722 18.9359C48.0321 18.6382 47.8919 18.2724 47.8717 17.8905V12.237C47.8717 11.9137 48.0001 11.6036 48.2288 11.3749C48.4574 11.1463 48.7675 11.0178 49.0908 11.0178H68.312C68.6353 11.0178 68.9454 10.8894 69.1741 10.6607C69.4027 10.4321 69.5311 10.122 69.5311 9.79866C69.5311 9.47532 69.4027 9.16522 69.1741 8.93658C68.9454 8.70794 68.6353 8.57949 68.312 8.57949H49.0908C48.1211 8.58041 47.1913 8.96605 46.5056 9.65177C45.8199 10.3375 45.4342 11.2673 45.4333 12.237V17.8835C45.4516 18.8579 45.8058 19.796 46.4361 20.5393C47.0664 21.2825 47.934 21.7853 48.8923 21.9625C48.9579 21.9735 49.0243 21.9793 49.0908 21.9799H65.8701C66.1935 21.9799 66.5036 22.1084 66.7322 22.337C66.9609 22.5657 67.0893 22.8758 67.0893 23.1991V29.8175C67.0893 30.1408 66.9609 30.4509 66.7322 30.6796C66.5036 30.9082 66.1935 31.0366 65.8701 31.0366H41.943C41.2504 31.0357 40.5864 30.7602 40.0967 30.2704C39.607 29.7807 39.3314 29.1167 39.3305 28.4241V5.05086C39.3314 4.35826 39.607 3.69429 40.0967 3.20455C40.5864 2.71481 41.2504 2.43927 41.943 2.43834H100.059C100.752 2.43834 101.417 2.71359 101.907 3.20353C102.397 3.69347 102.672 4.35798 102.672 5.05086V28.4311C102.672 29.124 102.397 29.7885 101.907 30.2784C101.417 30.7684 100.752 31.0436 100.059 31.0436H75.7489C75.4256 31.0436 75.1155 30.9152 74.8868 30.6865C74.6582 30.4579 74.5298 30.1478 74.5298 29.8244V11.0144H92.5282C92.8516 11.0144 93.1617 11.1428 93.3903 11.3714C93.619 11.6001 93.7474 11.9102 93.7474 12.2335V19.3988C93.7474 19.7221 93.619 20.0322 93.3903 20.2609C93.1617 20.4895 92.8516 20.6179 92.5282 20.6179H78.6436C78.3203 20.6179 78.0101 20.7464 77.7815 20.975C77.5529 21.2037 77.4244 21.5138 77.4244 21.8371C77.4244 22.1605 77.5529 22.4706 77.7815 22.6992C78.0101 22.9278 78.3203 23.0563 78.6436 23.0563H92.5282C93.498 23.0554 94.4277 22.6697 95.1135 21.984C95.7992 21.2983 96.1848 20.3685 96.1857 19.3988V12.237C96.1848 11.2673 95.7992 10.3375 95.1135 9.65177C94.4277 8.96605 93.498 8.58041 92.5282 8.57949H73.3106C72.9872 8.57949 72.6771 8.70794 72.4485 8.93658C72.2199 9.16522 72.0914 9.47532 72.0914 9.79866V29.8244C72.0933 30.7939 72.4792 31.7231 73.1647 32.4087C73.8502 33.0942 74.7795 33.4801 75.7489 33.482H100.059C101.399 33.481 102.683 32.9486 103.63 32.0016C104.577 31.0546 105.109 29.7704 105.11 28.4311V5.05086C105.109 3.71157 104.577 2.4274 103.63 1.48038C102.683 0.533361 101.399 0.000922692 100.059 0Z" fill="#FAA99C"/>
<path d="M8.36004 44.6252H1.74167C1.65336 44.6254 1.56827 44.5921 1.5036 44.532C1.43893 44.4718 1.39952 44.3894 1.39334 44.3013V42.3088C1.40036 42.2213 1.44014 42.1397 1.50472 42.0803C1.5693 42.0209 1.65392 41.988 1.74167 41.9883H9.05671C9.24148 41.9883 9.41868 41.9149 9.54933 41.7843C9.67998 41.6536 9.75338 41.4764 9.75338 41.2916C9.75338 41.1069 9.67998 40.9297 9.54933 40.799C9.41868 40.6684 9.24148 40.595 9.05671 40.595H1.74167C1.28454 40.5949 0.845711 40.7746 0.519873 41.0952C0.194035 41.4158 0.00731412 41.8517 0 42.3088V44.3013C0.00640818 44.7589 0.192731 45.1957 0.518666 45.5171C0.844602 45.8384 1.28395 46.0186 1.74167 46.0185H8.36004C8.44835 46.0183 8.53345 46.0517 8.59811 46.1118C8.66278 46.1719 8.70219 46.2544 8.70837 46.3425V48.2827C8.70219 48.3708 8.66278 48.4533 8.59811 48.5134C8.53345 48.5736 8.44835 48.6069 8.36004 48.6067H0.69667C0.511902 48.6067 0.334701 48.6801 0.20405 48.8107C0.073399 48.9414 0 49.1186 0 49.3033C0 49.4881 0.073399 49.6653 0.20405 49.796C0.334701 49.9266 0.511902 50 0.69667 50H8.36004C8.81777 50.0001 9.25711 49.8199 9.58305 49.4985C9.90898 49.1772 10.0953 48.7404 10.1017 48.2827V46.3286C10.0917 45.8733 9.90379 45.4401 9.57824 45.1217C9.25269 44.8033 8.8154 44.6251 8.36004 44.6252Z" fill="#FAA99C"/>
<path d="M25.2299 45.2627L28.0932 41.727C28.1552 41.6565 28.2023 41.5741 28.2316 41.4849C28.261 41.3956 28.2719 41.3014 28.2639 41.2078C28.2559 41.1142 28.229 41.0232 28.1849 40.9403C28.1408 40.8573 28.0804 40.7842 28.0073 40.7252C27.9342 40.6662 27.85 40.6226 27.7596 40.597C27.6692 40.5714 27.5746 40.5643 27.4814 40.5762C27.3882 40.5882 27.2984 40.6188 27.2174 40.6663C27.1364 40.7138 27.0658 40.7772 27.0099 40.8527L23.9759 44.5869H20.0362V41.2777C20.0362 41.0929 19.9628 40.9157 19.8322 40.7851C19.7015 40.6544 19.5243 40.581 19.3396 40.581C19.1548 40.581 18.9776 40.6544 18.8469 40.7851C18.7163 40.9157 18.6429 41.0929 18.6429 41.2777V49.2894C18.6429 49.4742 18.7163 49.6514 18.8469 49.782C18.9776 49.9127 19.1548 49.9861 19.3396 49.9861C19.5243 49.9861 19.7015 49.9127 19.8322 49.782C19.9628 49.6514 20.0362 49.4742 20.0362 49.2894V45.9802H24.0072L27.5394 49.7771C27.6018 49.8443 27.6769 49.8986 27.7603 49.9368C27.8437 49.9751 27.9339 49.9965 28.0256 49.9999C28.1173 50.0033 28.2087 49.9886 28.2947 49.9566C28.3808 49.9247 28.4596 49.8761 28.5269 49.8137C28.5941 49.7512 28.6484 49.6761 28.6867 49.5927C28.7249 49.5093 28.7463 49.4192 28.7497 49.3275C28.7531 49.2358 28.7384 49.1443 28.7064 49.0583C28.6745 48.9723 28.6259 48.8934 28.5635 48.8261L25.2299 45.2627Z" fill="#FAA99C"/>
<path d="M37.8814 40.595C37.6967 40.595 37.5195 40.6684 37.3888 40.799C37.2582 40.9297 37.1848 41.1069 37.1848 41.2916V49.3033C37.1848 49.4881 37.2582 49.6653 37.3888 49.796C37.5195 49.9266 37.6967 50 37.8814 50C38.0662 50 38.2434 49.9266 38.374 49.796C38.5047 49.6653 38.5781 49.4881 38.5781 49.3033V41.2916C38.5781 41.1069 38.5047 40.9297 38.374 40.799C38.2434 40.6684 38.0662 40.595 37.8814 40.595Z" fill="#FAA99C"/>
<path d="M57.9908 40.5949C57.8061 40.5949 57.6288 40.6683 57.4982 40.799C57.3675 40.9296 57.2941 41.1068 57.2941 41.2916V48.6066H56.5452L50.5086 40.8632C50.4433 40.7795 50.3598 40.7118 50.2644 40.6654C50.1691 40.6189 50.0643 40.5948 49.9582 40.5949H47.9414C47.7566 40.5949 47.5794 40.6683 47.4487 40.799C47.3181 40.9296 47.2447 41.1068 47.2447 41.2916V49.3033C47.2447 49.4881 47.3181 49.6653 47.4487 49.7959C47.5794 49.9266 47.7566 50 47.9414 50C48.1261 50 48.3033 49.9266 48.434 49.7959C48.5646 49.6653 48.638 49.4881 48.638 49.3033V41.9883H49.6203L55.6605 49.7318C55.7257 49.8154 55.8092 49.8831 55.9046 49.9296C56 49.9761 56.1047 50.0001 56.2108 50H57.9978C58.1826 50 58.3598 49.9266 58.4904 49.7959C58.6211 49.6653 58.6945 49.4881 58.6945 49.3033V41.2916C58.6945 41.1995 58.6762 41.1084 58.6408 41.0234C58.6053 40.9384 58.5534 40.8613 58.488 40.7965C58.4225 40.7317 58.3449 40.6806 58.2596 40.646C58.1742 40.6114 58.0829 40.594 57.9908 40.5949Z" fill="#FAA99C"/>
<path d="M140.268 44.6252H133.649C133.561 44.6254 133.476 44.5921 133.411 44.532C133.346 44.4718 133.307 44.3894 133.301 44.3013V42.3088C133.308 42.2213 133.348 42.1397 133.412 42.0803C133.477 42.0209 133.561 41.988 133.649 41.9883H140.964C141.149 41.9883 141.326 41.9149 141.457 41.7843C141.587 41.6536 141.661 41.4764 141.661 41.2916C141.661 41.1069 141.587 40.9297 141.457 40.799C141.326 40.6684 141.149 40.595 140.964 40.595H133.649C133.192 40.5949 132.753 40.7746 132.427 41.0952C132.102 41.4158 131.915 41.8517 131.907 42.3088V44.3013C131.914 44.7589 132.1 45.1957 132.426 45.5171C132.752 45.8384 133.191 46.0186 133.649 46.0185H140.268C140.356 46.0183 140.441 46.0517 140.506 46.1118C140.57 46.1719 140.61 46.2544 140.616 46.3425V48.2827C140.61 48.3708 140.57 48.4533 140.506 48.5134C140.441 48.5736 140.356 48.6069 140.268 48.6067H132.604C132.419 48.6067 132.242 48.6801 132.112 48.8107C131.981 48.9414 131.907 49.1186 131.907 49.3033C131.907 49.4881 131.981 49.6653 132.112 49.796C132.242 49.9266 132.419 50 132.604 50H140.268C140.725 50.0001 141.165 49.8199 141.491 49.4985C141.816 49.1772 142.003 48.7404 142.009 48.2827V46.3286C141.999 45.8733 141.811 45.4401 141.486 45.1217C141.16 44.8033 140.723 44.6251 140.268 44.6252Z" fill="#FAA99C"/>
<path d="M84.1403 40.595H76.1286C75.9438 40.595 75.7666 40.6684 75.636 40.799C75.5053 40.9297 75.4319 41.1069 75.4319 41.2916V49.3033C75.4319 49.4881 75.5053 49.6653 75.636 49.796C75.7666 49.9266 75.9438 50 76.1286 50C76.3134 50 76.4906 49.9266 76.6212 49.796C76.7519 49.6653 76.8253 49.4881 76.8253 49.3033V47.0252L84.1403 47.0775C84.6021 47.0792 85.0456 46.8976 85.3734 46.5724C85.5346 46.4143 85.6626 46.2257 85.7499 46.0176C85.8372 45.8094 85.8821 45.5859 85.882 45.3602V42.2983C85.872 41.8431 85.6841 41.4099 85.3585 41.0915C85.033 40.7731 84.5957 40.5949 84.1403 40.595ZM84.4887 45.3706C84.4869 45.4559 84.4519 45.5372 84.3911 45.5971C84.3257 45.6601 84.2382 45.6951 84.1473 45.6946L76.8323 45.6423V41.9883H84.1473C84.235 41.988 84.3197 42.0209 84.3842 42.0803C84.4488 42.1397 84.4886 42.2213 84.4956 42.3088L84.4887 45.3706Z" fill="#FAA99C"/>
<path d="M103.132 48.6067H96.1857C96.0939 48.6124 96.0035 48.5816 95.9343 48.5209C95.8651 48.4602 95.8228 48.3745 95.8165 48.2827V41.2916C95.8165 41.1069 95.7431 40.9297 95.6124 40.799C95.4818 40.6684 95.3046 40.595 95.1198 40.595C94.9351 40.595 94.7579 40.6684 94.6272 40.799C94.4966 40.9297 94.4232 41.1069 94.4232 41.2916V48.2827C94.4296 48.744 94.6188 49.184 94.9492 49.5059C95.2797 49.8279 95.7244 50.0056 96.1857 50H103.132C103.316 50 103.494 49.9266 103.624 49.796C103.755 49.6653 103.828 49.4881 103.828 49.3033C103.828 49.1186 103.755 48.9414 103.624 48.8107C103.494 48.6801 103.316 48.6067 103.132 48.6067Z" fill="#FAA99C"/>
<path d="M119.228 41.1035C119.13 40.9492 118.995 40.8223 118.835 40.7346C118.675 40.6468 118.495 40.6012 118.312 40.6019H117.267C117.081 40.6006 116.897 40.6477 116.735 40.7387C116.573 40.8297 116.437 40.9614 116.34 41.1209L113.09 46.6316C113.007 46.6878 112.937 46.7621 112.886 46.8488C112.834 46.9356 112.803 47.0328 112.794 47.1332L111.718 48.955C111.672 49.0339 111.641 49.1212 111.628 49.2118C111.616 49.3025 111.621 49.3948 111.644 49.4835C111.667 49.5721 111.707 49.6554 111.762 49.7285C111.817 49.8015 111.886 49.863 111.965 49.9094C112.071 49.972 112.191 50.0057 112.314 50.007C112.436 50.0068 112.556 49.9746 112.662 49.9134C112.767 49.8523 112.855 49.7644 112.916 49.6586L113.961 47.8995H121.569C121.635 47.8982 121.701 47.8876 121.764 47.8682L122.872 49.6691C122.97 49.8235 123.124 49.9333 123.303 49.9746C123.481 50.0159 123.668 49.9855 123.824 49.8899C123.98 49.7943 124.092 49.6412 124.136 49.4637C124.18 49.2862 124.153 49.0984 124.06 48.941L119.228 41.1035ZM114.762 46.5027L117.424 41.9743H118.141L120.911 46.5027H114.762Z" fill="#FAA99C"/>
</g>
<defs>
<clipPath id="clip0_201_413">
<rect width="142.006" height="50" fill="white"/>
</clipPath>
</defs>
</svg>
