<svg width="20" height="20" viewBox="0 0 20 20" fill="none" xmlns="http://www.w3.org/2000/svg">
<path d="M5.83317 15.8333C6.75364 15.8333 7.49984 15.0871 7.49984 14.1667C7.49984 13.2462 6.75364 12.5 5.83317 12.5C4.9127 12.5 4.1665 13.2462 4.1665 14.1667C4.1665 15.0871 4.9127 15.8333 5.83317 15.8333Z" stroke="#949EA0" stroke-linecap="round" stroke-linejoin="round"/>
<path d="M14.1667 15.8333C15.0871 15.8333 15.8333 15.0871 15.8333 14.1667C15.8333 13.2462 15.0871 12.5 14.1667 12.5C13.2462 12.5 12.5 13.2462 12.5 14.1667C12.5 15.0871 13.2462 15.8333 14.1667 15.8333Z" stroke="#949EA0" stroke-linecap="round" stroke-linejoin="round"/>
<path d="M4.1665 14.1667H2.49984V10.8333M1.6665 4.16666H10.8332V14.1667M7.49984 14.1667H12.4998M15.8332 14.1667H17.4998V9.16666M17.4998 9.16666H10.8332M17.4998 9.16666L14.9998 4.99999H10.8332" stroke="#949EA0" stroke-linecap="round" stroke-linejoin="round"/>
<path d="M2.5 7.5H5.83333" stroke="#949EA0" stroke-linecap="round" stroke-linejoin="round"/>
</svg>
